<svg width="68" height="74" viewBox="0 0 68 74" fill="none" xmlns="http://www.w3.org/2000/svg">
<path d="M0 52.7813C0 54.234 0.787574 55.5725 2.05745 56.2779L30.1102 71.8626C31.4433 72.6032 33.0815 71.6393 33.0815 70.1143V55.1349V40.0291C33.0815 38.5764 32.2939 37.238 31.024 36.5325L2.97128 20.9478C1.63821 20.2072 0 21.1712 0 22.6961V52.7813Z" fill="#FF8C1A"/>
<path d="M65.9383 56.2772C67.2108 55.5725 68.0004 54.2325 68.0004 52.7779V22.6964C68.0004 21.1714 66.3622 20.2075 65.0291 20.9481L36.9764 36.5327C35.7065 37.2382 34.9189 38.5767 34.9189 40.0294V54.8289V70.0619C34.9189 71.5857 36.5549 72.5497 37.8879 71.8115L65.9383 56.2772Z" fill="#59C059"/>
<path d="M63.7209 19.3261C65.1357 18.5401 65.0797 16.4866 63.624 15.779L58.8105 13.4392L50.5402 8.95945L35.8801 1.01866C34.705 0.382187 33.2898 0.374543 32.1079 0.998284L4.18393 15.7358C2.77915 16.4772 2.75762 18.4815 4.14616 19.2529L32.0569 34.7586C33.265 35.4298 34.7339 35.4298 35.942 34.7586L63.7209 19.3261Z" fill="#4C97FF"/>
<path d="M42.7537 22.7563C37.521 26.2448 30.8267 26.1454 25.3438 22.4629C19.8608 18.7804 19.7373 14.2847 24.9581 10.8042C30.1788 7.32374 36.8851 7.43108 42.368 11.1136C47.8509 14.7961 47.9744 19.2759 42.7537 22.7563ZM39.2017 20.3707C41.6508 18.738 41.1777 16.2778 37.9118 14.0843C34.634 11.8828 30.9591 11.5571 28.51 13.1898C26.0609 14.8225 26.534 17.2827 29.8119 19.4842C33.0778 21.6777 36.7407 22.0114 39.2017 20.3707Z" fill="white"/>
<path d="M48.1624 59.0485C46.7027 59.8506 45.8846 59.3308 45.951 57.5804L46.5402 42.0561C46.6067 40.3057 47.5005 38.8311 48.9602 38.029L54.5094 34.9795C58.4103 32.8359 60.9434 34.2677 60.7746 38.7155C60.6068 43.1346 57.7164 47.5467 53.6772 49.7664L50.7075 51.3983L50.5691 55.0426C50.5027 56.7931 49.622 58.2464 48.1624 59.0485ZM50.8578 47.4383L52.8585 46.3388C54.8215 45.2601 56.0233 43.4618 56.1056 41.2953C56.1872 39.1431 55.0737 38.6171 53.1358 39.682L51.1099 40.7953L50.8578 47.4383Z" fill="white"/>
<path d="M58.1191 51.5837C57.7951 51.7618 57.5568 51.6293 57.5701 51.2778C57.5836 50.9227 57.8423 50.5171 58.1663 50.3391C58.4904 50.161 58.7255 50.2952 58.712 50.6503C58.6987 51.0018 58.4431 51.4057 58.1191 51.5837ZM57.9526 55.9706C57.6003 56.1642 57.4049 56.0362 57.4208 55.6166L57.5252 52.8654C57.541 52.4493 57.7548 52.093 58.1071 51.8994C58.4563 51.7075 58.6547 51.8373 58.6389 52.2534L58.5345 55.0046C58.5185 55.4243 58.3018 55.7787 57.9526 55.9706Z" fill="white"/>
<path d="M59.8936 54.9039C59.5633 55.0855 59.3417 55 59.3585 54.5552L59.4495 52.1592L59.3268 52.2266C59.1097 52.3459 58.9397 52.2813 58.9509 51.9871C58.9619 51.6966 59.1442 51.4384 59.3612 51.3191L59.4839 51.2517L59.4925 51.0257C59.5222 50.2437 59.8779 49.7181 60.5702 49.3306C61.1617 49.0056 61.3834 49.0875 61.3727 49.3709C61.3664 49.5359 61.2935 49.6707 61.1535 49.7898C61.1024 49.8354 61.0423 49.879 60.9729 49.9207C60.6923 50.0925 60.5842 50.2607 60.5755 50.4903L60.5692 50.6553L60.9027 50.472C61.1229 50.351 61.2898 50.4173 61.2788 50.7079C61.2676 51.002 61.0885 51.2585 60.8683 51.3795L60.5663 51.5455L60.4753 53.9415C60.4584 54.3863 60.2208 54.7242 59.8936 54.9039Z" fill="white"/>
<path d="M62.1795 54.9754C61.7076 55.2347 61.4576 55.1684 61.4719 54.7918C61.4814 54.5407 61.6414 54.3017 61.8868 54.1669C61.9402 54.1375 61.981 54.1186 62.0345 54.0892C62.1698 54.0149 62.3318 53.8837 62.439 53.6562L62.4702 53.5653L61.5463 50.9648C61.5071 50.8599 61.4875 50.7266 61.4916 50.619C61.5045 50.2783 61.7657 49.8889 62.0961 49.7074C62.3949 49.5431 62.5405 49.6036 62.6173 49.9337L63.1598 52.0763C63.1618 52.0842 63.1707 52.0881 63.1779 52.0841C63.1809 52.0825 63.1831 52.0796 63.1839 52.0763L63.9202 49.2037C64.0216 48.8037 64.1944 48.5543 64.4806 48.397C64.8015 48.2207 65.0159 48.3347 65.0033 48.6647C64.9993 48.7723 64.965 48.9456 64.9226 49.0883L63.865 52.6056C63.4943 53.8525 63.0226 54.5121 62.1795 54.9754Z" fill="white"/>
<path d="M15.8696 57.143C10.6369 53.6546 7.35156 47.358 7.35156 40.7532C7.35156 34.1485 10.6489 32.2259 15.8696 35.7064C21.0904 39.1869 24.3758 45.4979 24.3758 52.1026C24.3758 58.7073 21.0904 60.6235 15.8696 57.143ZM15.8696 52.8643C18.3187 54.497 19.9196 53.066 19.9196 49.1318C19.9196 45.1834 18.3187 41.6178 15.8696 39.9851C13.4205 38.3524 11.8197 39.7835 11.8197 43.7319C11.8197 47.6661 13.4086 51.2236 15.8696 52.8643Z" fill="white"/>
</svg>
