<svg width="68" height="72" viewBox="0 0 68 72" fill="none" xmlns="http://www.w3.org/2000/svg">
<path d="M65.0283 20.4122C66.3614 19.6716 68 20.6362 68 22.1612V52.2423C68 53.6968 67.21 55.0366 65.9375 55.7413L37.8877 71.2755C36.5547 72.0136 34.9191 71.0501 34.9189 69.5264V51.6251C37.9533 51.8658 40.5781 53.298 41.6377 55.5938C41.9849 56.3458 42.8768 56.6742 43.6289 56.3272C44.3807 55.98 44.7091 55.089 44.3623 54.337C42.6644 50.6576 38.7338 48.8669 34.9189 48.6202V39.4942C34.9189 38.0417 35.7059 36.7027 36.9756 35.9971L39.2178 34.7491C39.4692 36.6039 39.9297 38.2833 40.5537 39.6563C41.4891 41.714 42.9861 43.4639 45 43.4639C47.0139 43.4639 48.5109 41.714 49.4463 39.6563C50.4226 37.5083 51 34.6105 51 31.4639C51 30.3782 50.929 29.3224 50.7988 28.3165L65.0283 20.4122Z" fill="#59C059"/>
<path d="M0 22.1603C4.95311e-05 20.6354 1.63864 19.6717 2.97168 20.4123L17.2002 28.3156C17.07 29.3218 17 30.378 17 31.4641C17 34.6107 17.5774 37.5084 18.5537 39.6564C19.4891 41.7141 20.9861 43.4641 23 43.4641C25.0139 43.4641 26.5109 41.7141 27.4463 39.6564C28.0702 38.2837 28.5298 36.6046 28.7812 34.7502L31.0244 35.9963C32.2942 36.7018 33.081 38.0407 33.0811 39.4934V48.6203C29.2662 48.8671 25.3356 50.6578 23.6377 54.3371C23.2911 55.089 23.6194 55.9802 24.3711 56.3273C25.1231 56.6743 26.0151 56.3458 26.3623 55.5939C27.4219 53.2982 30.0467 51.8659 33.0811 51.6252V69.5783C33.0811 71.1032 31.4434 72.0676 30.1104 71.3273L2.05762 55.7424C0.787746 55.0369 0 53.698 0 52.2453V22.1603Z" fill="#FF8C1A"/>
<path d="M32.1078 0.462808C33.2896 -0.160895 34.7053 -0.154015 35.8803 0.482339L50.5404 8.42375L58.8109 12.9032L63.6244 15.2431C65.0799 15.9507 65.1358 18.0039 63.7211 18.79L50.4135 26.1816C50.162 25.1133 49.8376 24.1324 49.4467 23.2724C48.5114 21.2149 47.0141 19.465 45.0004 19.4648C42.9865 19.4648 41.4894 21.2147 40.5541 23.2724C39.5778 25.4204 39.0004 28.3182 39.0004 31.4648C39.0004 31.8168 39.0077 32.1656 39.0219 32.5107L35.9418 34.2226C34.7337 34.8936 33.265 34.8937 32.057 34.2226L28.9769 32.5116C28.9912 32.1661 28.9994 31.8163 28.9994 31.4638C28.9994 28.3172 28.422 25.4193 27.4457 23.2714C26.5103 21.2139 25.0132 19.4638 22.9994 19.4638C20.9857 19.464 19.4884 21.2139 18.5531 23.2714C18.162 24.1319 17.8369 25.1136 17.5853 26.1825L4.14589 18.7167C2.75793 17.9451 2.77957 15.9415 4.18397 15.2001L32.1078 0.462808Z" fill="#4C97FF"/>
</svg>
